<svg xmlns="http://www.w3.org/2000/svg" viewBox="0 0 1200 300" role="img" aria-labelledby="title">
  <title id="title">Skill Developer</title>
  <defs>
    <linearGradient id="ink" x1="0" y1="0" x2="1" y2="0">
      <stop offset="0" stop-color="#22D3EE"/>
      <stop offset=".52" stop-color="#6366F1"/>
      <stop offset="1" stop-color="#A855F7"/>
    </linearGradient>
  </defs>
  <g fill="url(#ink)"><path id="word-1" d="M168.298 205.805Q156.567 205.805 147.657 202.158Q138.746 198.511 133.520 191.743Q128.294 184.976 127.617 175.727L127.542 174.674L141.077 174.674L141.228 175.727Q142.055 181.141 145.664 185.088Q149.273 189.036 155.251 191.179Q161.229 193.322 169.050 193.322Q176.870 193.322 182.585 191.104Q188.300 188.886 191.420 184.750Q194.541 180.614 194.541 175.050L194.541 174.975Q194.541 167.831 189.578 163.545Q184.615 159.259 173.411 156.777L161.380 154.146Q150.777 151.814 143.897 147.792Q137.017 143.769 133.633 137.866Q130.249 131.963 130.249 124.067L130.249 123.992Q130.324 115.044 135.212 108.239Q140.100 101.434 148.709 97.561Q157.319 93.688 168.448 93.688Q179.051 93.688 187.397 97.486Q195.744 101.283 200.745 108.051Q205.745 114.818 206.347 123.691L206.422 124.819L192.887 124.819L192.736 123.767Q191.909 118.202 188.676 114.292Q185.442 110.382 180.216 108.276Q174.990 106.171 168.072 106.171Q160.854 106.171 155.439 108.352Q150.025 110.532 147.055 114.442Q144.085 118.353 144.085 123.616L144.085 123.691Q144.085 128.128 146.303 131.512Q148.521 134.896 153.108 137.264Q157.695 139.633 164.764 141.212L176.795 143.844Q187.924 146.250 194.879 150.235Q201.835 154.221 205.106 160.124Q208.377 166.026 208.377 174.298L208.377 174.373Q208.377 183.998 203.527 191.066Q198.677 198.135 189.691 201.970Q180.705 205.805 168.298 205.805M236.274 204L223.190 204L223.190 95.493L236.274 95.493L236.274 204M287.783 204L272.594 204L242.816 166.628L251.539 157.905L287.783 204M248.606 162.718L233.342 177.306L233.342 160.312L236.575 160.312L270.864 125.797L286.730 125.797L249.659 162.718L248.606 162.718M310.793 204L297.709 204L297.709 125.797L310.793 125.797L310.793 204M304.251 112.563Q300.867 112.563 298.461 110.156Q296.055 107.750 296.055 104.366Q296.055 100.907 298.461 98.539Q300.867 96.170 304.251 96.170Q307.710 96.170 310.079 98.539Q312.447 100.907 312.447 104.366Q312.447 107.750 310.079 110.156Q307.710 112.563 304.251 112.563M342.375 204L329.291 204L329.291 95.493L342.375 95.493L342.375 204M373.807 204L360.723 204L360.723 95.493L373.807 95.493"/><path id="word-2" d="M463.978 204L427.508 204L427.508 95.493L463.978 95.493Q480.069 95.493 491.499 101.922Q502.929 108.352 509.057 120.420Q515.186 132.489 515.186 149.559L515.186 149.709Q515.186 166.778 509.095 178.960Q503.004 191.142 491.574 197.571Q480.145 204 463.978 204M441.043 107.675L441.043 191.818L463.075 191.818Q475.407 191.818 483.942 186.931Q492.477 182.043 496.913 172.681Q501.350 163.319 501.350 149.859L501.350 149.709Q501.350 136.174 496.913 126.774Q492.477 117.375 483.942 112.525Q475.407 107.675 463.075 107.675L441.043 107.675M562.183 205.504Q550.979 205.504 542.895 200.541Q534.812 195.578 530.488 186.517Q526.164 177.456 526.164 165.199L526.164 165.124Q526.164 153.018 530.525 143.806Q534.887 134.595 542.782 129.444Q550.678 124.293 561.355 124.293Q572.033 124.293 579.741 129.218Q587.448 134.144 591.584 143.017Q595.720 151.890 595.720 163.620L595.720 168.433L532.706 168.433L532.706 158.206L589.253 158.206L582.636 167.681L582.636 162.643Q582.636 153.544 579.891 147.604Q577.146 141.663 572.334 138.768Q567.521 135.873 561.280 135.873Q555.039 135.873 550.076 138.918Q545.113 141.964 542.256 147.942Q539.398 153.920 539.398 162.643L539.398 167.681Q539.398 175.952 542.218 181.817Q545.038 187.683 550.227 190.803Q555.415 193.924 562.483 193.924Q567.446 193.924 571.356 192.420Q575.267 190.916 577.898 188.284Q580.530 185.652 581.658 182.269L581.884 181.592L594.742 181.592L594.592 182.344Q593.614 187.156 590.870 191.367Q588.125 195.578 583.839 198.774Q579.553 201.970 574.063 203.737Q568.574 205.504 562.183 205.504M644.296 204L630.911 204L602.111 125.797L615.872 125.797L637.453 190.089L637.754 190.089L659.410 125.797L673.021 125.797L644.296 204M715.431 205.504Q704.227 205.504 696.143 200.541Q688.060 195.578 683.736 186.517Q679.412 177.456 679.412 165.199L679.412 165.124Q679.412 153.018 683.773 143.806Q688.135 134.595 696.030 129.444Q703.926 124.293 714.604 124.293Q725.281 124.293 732.989 129.218Q740.696 134.144 744.832 143.017Q748.968 151.890 748.968 163.620L748.968 168.433L685.954 168.433L685.954 158.206L742.501 158.206L735.884 167.681L735.884 162.643Q735.884 153.544 733.139 147.604Q730.395 141.663 725.582 138.768Q720.770 135.873 714.528 135.873Q708.287 135.873 703.324 138.918Q698.361 141.964 695.504 147.942Q692.646 153.920 692.646 162.643L692.646 167.681Q692.646 175.952 695.466 181.817Q698.286 187.683 703.475 190.803Q708.663 193.924 715.731 193.924Q720.694 193.924 724.604 192.420Q728.515 190.916 731.146 188.284Q733.778 185.652 734.906 182.269L735.132 181.592L747.990 181.592L747.840 182.344Q746.862 187.156 744.118 191.367Q741.373 195.578 737.087 198.774Q732.801 201.970 727.312 203.737Q721.822 205.504 715.431 205.504M775.888 204L762.804 204L762.804 95.493L775.888 95.493L775.888 204M825.968 205.504Q815.140 205.504 806.981 200.541Q798.822 195.578 794.273 186.442Q789.724 177.306 789.724 164.898L789.724 164.748Q789.724 152.266 794.273 143.205Q798.822 134.144 806.981 129.218Q815.140 124.293 825.893 124.293Q836.721 124.293 844.879 129.218Q853.038 134.144 857.587 143.205Q862.137 152.266 862.137 164.748L862.137 164.898Q862.137 177.381 857.587 186.479Q853.038 195.578 844.917 200.541Q836.796 205.504 825.968 205.504M826.043 193.924Q832.961 193.924 838.037 190.502Q843.112 187.081 845.932 180.577Q848.752 174.072 848.752 164.898L848.752 164.748Q848.752 155.574 845.932 149.107Q843.112 142.641 837.961 139.257Q832.811 135.873 825.893 135.873Q819.125 135.873 813.974 139.294Q808.823 142.716 805.966 149.145Q803.108 155.574 803.108 164.748L803.108 164.898Q803.108 174.072 805.966 180.577Q808.823 187.081 813.974 190.502Q819.125 193.924 826.043 193.924M888.380 230.318L875.296 230.318L875.296 125.797L888.380 125.797L888.380 139.031L888.681 139.031Q891.162 134.444 894.809 131.173Q898.456 127.902 903.193 126.098Q907.931 124.293 913.495 124.293Q923.496 124.293 930.978 129.293Q938.460 134.294 942.596 143.430Q946.731 152.566 946.731 164.898L946.731 164.974Q946.731 177.306 942.558 186.404Q938.385 195.503 930.978 200.503Q923.571 205.504 913.721 205.504Q908.231 205.504 903.419 203.737Q898.606 201.970 894.884 198.699Q891.162 195.428 888.681 190.916L888.380 190.916L888.380 230.318M910.938 193.924Q917.856 193.924 922.895 190.390Q927.933 186.855 930.640 180.351Q933.347 173.847 933.347 164.974L933.347 164.898Q933.347 155.875 930.640 149.371Q927.933 142.866 922.895 139.370Q917.856 135.873 910.938 135.873Q904.321 135.873 899.208 139.482Q894.095 143.092 891.200 149.596Q888.305 156.101 888.305 164.898L888.305 164.974Q888.305 173.696 891.237 180.201Q894.170 186.705 899.246 190.314Q904.321 193.924 910.938 193.924M992.074 205.504Q980.870 205.504 972.787 200.541Q964.703 195.578 960.379 186.517Q956.056 177.456 956.056 165.199L956.056 165.124Q956.056 153.018 960.417 143.806Q964.778 134.595 972.674 129.444Q980.569 124.293 991.247 124.293Q1001.925 124.293 1009.632 129.218Q1017.340 134.144 1021.476 143.017Q1025.611 151.890 1025.611 163.620L1025.611 168.433L962.598 168.433L962.598 158.206L1019.145 158.206L1012.527 167.681L1012.527 162.643Q1012.527 153.544 1009.783 147.604Q1007.038 141.663 1002.226 138.768Q997.413 135.873 991.172 135.873Q984.931 135.873 979.968 138.918Q975.005 141.964 972.147 147.942Q969.290 153.920 969.290 162.643L969.290 167.681Q969.290 175.952 972.110 181.817Q974.930 187.683 980.118 190.803Q985.307 193.924 992.375 193.924Q997.338 193.924 1001.248 192.420Q1005.158 190.916 1007.790 188.284Q1010.422 185.652 1011.550 182.269L1011.775 181.592L1024.634 181.592L1024.483 182.344Q1023.506 187.156 1020.761 191.367Q1018.017 195.578 1013.730 198.774Q1009.444 201.970 1003.955 203.737Q998.466 205.504 992.074 205.504M1051.854 204L1038.771 204L1038.771 125.797L1051.854 125.797L1051.854 139.031L1052.155 139.031Q1054.110 132.264 1058.923 128.278Q1063.735 124.293 1070.353 124.293Q1072.082 124.293 1073.473 124.481Q1074.864 124.669 1075.616 124.819L1075.616 137.527Q1074.864 137.227 1072.947 137.001Q1071.029 136.775 1068.623 136.775Q1063.585 136.775 1059.788 139.031Q1055.990 141.287 1053.922 145.536Q1051.854 149.784 1051.854 155.725"/></g>
</svg>
