<svg xmlns="http://www.w3.org/2000/svg" viewBox="0 0 1200 270" role="img" aria-labelledby="title">
  <title id="title">Skill Developer</title>
  <defs>
    <linearGradient id="apple-system" gradientUnits="userSpaceOnUse" x1="172.86" y1="135" x2="1027.14" y2="135">
      <stop offset="0" stop-color="#0A84FF"/>
      <stop offset=".5" stop-color="#5E5CE6"/>
      <stop offset="1" stop-color="#BF5AF2"/>
    </linearGradient>
  </defs>
  <g fill="none" stroke="url(#apple-system)" stroke-width="13" stroke-linecap="round" stroke-linejoin="round">
    <path id="stroke-01" d="M241.74 82.25 C231.66 69.95 189.66 72.00 182.94 95.57 C176.22 118.12 236.70 111.97 240.06 137.59 C243.42 163.21 214.86 177.55 181.26 161.16"/>
    <path id="stroke-02" d="M258.54 72.00 L258.54 174.48"/>
    <path id="stroke-03" d="M307.26 106.84 L260.22 138.61 L309.78 174.48"/>
    <path id="stroke-04" d="M330.78 108.89 L330.78 174.48"/>
    <path id="stroke-05" d="M330.78 84.30 L330.78 85.83"/>
    <path id="stroke-06" d="M361.02 74.05 L361.02 174.48"/>
    <path id="stroke-07" d="M388.74 74.05 L388.74 174.48"/>
    <path id="stroke-08" d="M454.26 74.05 L454.26 174.48"/>
    <path id="stroke-09" d="M454.26 74.05 C509.70 74.05 520.62 96.60 520.62 123.24 C520.62 152.96 506.34 174.48 454.26 174.48"/>
    <path id="stroke-10" d="M588.66 145.79 L535.74 145.79 C537.42 117.09 551.70 106.84 565.14 106.84 C583.62 106.84 592.02 124.26 588.66 145.79 C582.78 170.38 552.54 177.55 536.58 158.08"/>
    <path id="stroke-11" d="M599.58 110.94 L626.46 174.48 L654.18 110.94"/>
    <path id="stroke-12" d="M724.74 145.79 L671.82 145.79 C673.50 117.09 687.78 106.84 701.22 106.84 C719.70 106.84 728.10 124.26 724.74 145.79 C718.86 170.38 688.62 177.55 672.66 158.08"/>
    <path id="stroke-13" d="M743.22 74.05 L743.22 174.48"/>
    <path id="stroke-14" d="M791.94 106.84 C772.62 106.84 765.90 124.26 765.90 141.69 C765.90 162.18 775.98 174.48 791.94 174.48 C810.42 174.48 819.66 158.08 819.66 140.66 C819.66 121.19 809.58 106.84 791.94 106.84"/>
    <path id="stroke-15" d="M837.30 107.87 L837.30 192.93"/>
    <path id="stroke-16" d="M837.30 122.22 C849.90 102.74 884.34 103.77 887.70 135.54 C890.22 162.18 865.02 179.60 838.14 160.13"/>
    <path id="stroke-17" d="M961.62 145.79 L908.70 145.79 C910.38 117.09 924.66 106.84 938.10 106.84 C956.58 106.84 964.98 124.26 961.62 145.79 C955.74 170.38 925.50 177.55 909.54 158.08"/>
    <path id="stroke-18" d="M976.74 107.87 L976.74 174.48"/>
    <path id="stroke-19" d="M976.74 127.34 C990.18 104.79 1011.18 102.74 1023.78 116.07"/>
  </g>
</svg>
